<svg xmlns="http://www.w3.org/2000/svg" viewBox="0 0 64 64" fill="none" stroke="currentColor" stroke-width="1.5">
  <!-- Tower -->
  <path d="M32 22v40" stroke-width="2" stroke-linecap="round" />
  <path d="M28 62h8" stroke-width="2" stroke-linecap="round" />
  
  <!-- Hub -->
  <circle cx="32" cy="22" r="4" fill="currentColor" stroke-width="0" />
  
  <!-- Blades -->
  <path d="M32 22L14 8c0 0-4-2-2 2s20 12 20 12" stroke-width="2" stroke-linejoin="round" fill="white" />
  <path d="M32 22L50 8c0 0 4-2 2 2s-20 12-20 12" stroke-width="2" stroke-linejoin="round" fill="white" />
  <path d="M32 22L32 2c0 0 0-4 4 0s-4 20-4 20" stroke-width="2" stroke-linejoin="round" fill="white" />
  
  <!-- Ocean Base -->
  <path d="M18 62c0 0 2-4 14-4s14 4 14 4" stroke-width="1.5" />
  <path d="M20 62c0 0 0-2 12-2s12 2 12 2" stroke-width="1.5" />
</svg> 